<svg width="36" height="403" viewBox="0 0 36 403" fill="none" xmlns="http://www.w3.org/2000/svg">
<path fill-rule="evenodd" clip-rule="evenodd" d="M18 403L0.679502 373L15 373L15 353C15 351.343 16.3432 350 18 350C19.6569 350 21 351.343 21 353L21 373L35.3205 373L18 403ZM18 5.04736e-07C19.6568 4.56453e-07 21 1.34315 21 3L21 13C21 14.6569 19.6568 16 18 16C16.3431 16 15 14.6569 15 13L15 3C15 1.34315 16.3431 5.53018e-07 18 5.04736e-07ZM18 30C19.6568 30 21 31.3431 21 33L21 53C21 54.6569 19.6568 56 18 56C16.3431 56 15 54.6569 15 53L15 33C15 31.3431 16.3431 30 18 30ZM18 70C19.6568 70 21 71.3431 21 73L21 93C21 94.6569 19.6568 96 18 96C16.3431 96 15 94.6569 15 93L15 73C15 71.3431 16.3431 70 18 70ZM18 110C19.6568 110 21 111.343 21 113L21 133C21 134.657 19.6568 136 18 136C16.3431 136 15 134.657 15 133L15 113C15 111.343 16.3431 110 18 110ZM18 150C19.6569 150 21 151.343 21 153L21 173C21 174.657 19.6569 176 18 176C16.3431 176 15 174.657 15 173L15 153C15 151.343 16.3431 150 18 150ZM18 190C19.6569 190 21 191.343 21 193L21 213C21 214.657 19.6569 216 18 216C16.3431 216 15 214.657 15 213L15 193C15 191.343 16.3431 190 18 190ZM18 230C19.6569 230 21 231.343 21 233L21 253C21 254.657 19.6569 256 18 256C16.3431 256 15 254.657 15 253L15 233C15 231.343 16.3431 230 18 230ZM18 270C19.6569 270 21 271.343 21 273L21 293C21 294.657 19.6569 296 18 296C16.3432 296 15 294.657 15 293L15 273C15 271.343 16.3432 270 18 270ZM18 310C19.6569 310 21 311.343 21 313L21 333C21 334.657 19.6569 336 18 336C16.3432 336 15 334.657 15 333L15 313C15 311.343 16.3432 310 18 310Z" fill="#BFBFBF"/>
</svg>
